# xmcd
#
# Track frame offsets:
#	150
#	28892
#	53522
#	75572
#	102022
#	124012
#	147947
#	174142
#	192552
#	208522
#
# Disc length: 3070 seconds
#
# Revision: 0
# Processed by: cddbd v1.5.2PL0 Copyright (c) Steve Scherf et al.
# Submitted via: EasyCDDAExtractor 16.0.6.1
#
DISCID=7e0bfc0a
DTITLE=MINI CURRY - 100%
DYEAR=1987
DGENRE=Funk
TTITLE0=100%
TTITLE1=If They Only New
TTITLE2=I Think I'm Over You
TTITLE3=I Like It
TTITLE4=I Think I'm Over You (Instrumental)
TTITLE5=Have We Lost
TTITLE6=Serious
TTITLE7=Doll In The Window
TTITLE8=The First Time
TTITLE9=I Think I'm Over You (Long Version)
EXTD=
EXTT0=
EXTT1=
EXTT2=
EXTT3=
EXTT4=
EXTT5=
EXTT6=
EXTT7=
EXTT8=
EXTT9=
PLAYORDER=
